<?xml version="1.0" standalone="no"?>
<!DOCTYPE svg PUBLIC "-//W3C//DTD SVG 20010904//EN"
 "http://www.w3.org/TR/2001/REC-SVG-20010904/DTD/svg10.dtd">
<svg version="1.0" xmlns="http://www.w3.org/2000/svg"
 width="1280.000000pt" height="1280.000000pt" viewBox="0 0 1280.000000 1280.000000"
 preserveAspectRatio="xMidYMid meet">
<metadata>
Created by potrace 1.15, written by Peter Selinger 2001-2017
</metadata>
<g transform="translate(0.000000,1280.000000) scale(0.100000,-0.100000)"
fill="#000000" stroke="none">
<path d="M6200 10823 c-256 -14 -445 -38 -695 -88 -549 -111 -1094 -339 -1568
-657 -1455 -974 -2203 -2729 -1897 -4448 139 -779 481 -1503 994 -2105 105
-122 339 -359 461 -465 360 -313 763 -563 1198 -744 411 -171 817 -273 1282
-322 216 -23 642 -23 860 0 670 70 1302 282 1863 624 731 446 1325 1099 1688
1857 586 1224 588 2627 5 3840 -484 1007 -1334 1797 -2371 2204 -454 178 -882
271 -1390 301 -155 9 -302 10 -430 3z m638 -418 c669 -74 1322 -319 1867 -700
366 -256 727 -616 993 -991 523 -737 786 -1678 721 -2582 -69 -966 -461 -1850
-1124 -2531 -1323 -1360 -3375 -1623 -4995 -640 -273 166 -497 344 -745 593
-317 318 -539 619 -736 1000 -577 1111 -597 2451 -53 3584 95 198 154 302 280
492 150 227 294 401 508 616 331 330 653 563 1058 764 484 240 938 362 1548
414 99 9 543 -4 678 -19z"/>
<path d="M8804 8965 c-9 -14 -14 -34 -11 -44 3 -13 -12 -35 -52 -75 -50 -49
-68 -60 -156 -90 -411 -139 -873 -337 -1130 -486 -287 -165 -396 -257 -845
-714 -656 -668 -937 -940 -1046 -1013 -22 -14 -626 -195 -632 -189 -2 2 17 44
41 92 42 85 137 328 151 387 8 33 6 33 -80 6 -176 -54 -377 -147 -509 -235
-138 -92 -397 -319 -693 -608 -160 -157 -162 -159 -182 -141 -21 19 -22 18
-68 -28 l-46 -47 33 -34 33 -34 -93 -153 c-51 -85 -118 -203 -150 -264 -56
-108 -127 -300 -116 -312 10 -9 196 59 292 107 50 25 168 92 263 149 l173 104
35 -34 34 -33 47 46 c46 47 47 47 28 68 -19 21 -18 21 31 70 l49 49 190 -38
c105 -21 208 -47 230 -58 130 -67 157 -165 115 -417 -34 -205 -27 -212 190
-177 156 25 199 26 263 7 54 -16 92 -44 122 -89 32 -48 43 -85 81 -277 l34
-175 -50 -49 c-47 -47 -50 -49 -68 -33 -17 16 -21 14 -65 -31 l-47 -48 30 -29
c16 -16 30 -33 30 -38 0 -5 -46 -86 -102 -180 -56 -94 -123 -214 -149 -267
-45 -90 -114 -278 -106 -286 2 -3 51 12 108 32 120 41 263 114 467 237 79 48
149 87 155 87 6 0 25 -13 42 -30 l31 -30 47 48 c47 48 48 48 27 67 -20 18 -18
20 143 189 470 494 595 649 708 881 66 136 153 367 147 392 -5 21 -275 -75
-431 -154 -38 -19 -70 -33 -71 -31 -2 2 38 141 88 310 l91 308 79 97 c44 54
357 375 696 713 611 609 707 709 806 845 192 262 435 781 629 1340 44 125 55
146 98 193 41 42 56 52 83 52 56 0 88 52 60 95 -23 35 -79 35 -102 0z m-1254
-1190 c69 -35 109 -76 142 -142 27 -56 32 -77 32 -137 -1 -170 -130 -300 -298
-300 -87 -1 -132 14 -195 64 -106 84 -145 240 -89 361 38 80 107 144 188 170
43 14 181 4 220 -16z m-3750 -2250 c63 -63 112 -116 110 -118 -3 -3 -63 -36
-135 -75 -146 -80 -314 -157 -322 -148 -13 13 207 456 226 456 4 0 58 -52 121
-115z m1655 -1656 l110 -111 -24 -16 c-77 -55 -428 -229 -439 -218 -13 14 213
456 233 456 6 0 60 -50 120 -111z"/>
</g>
</svg>
